<?xml version="1.0" encoding="UTF-8" standalone="no"?>
<!-- Created with Inkscape (http://www.inkscape.org/) -->

<svg
   xmlns:dc="http://purl.org/dc/elements/1.1/"
   xmlns:cc="http://creativecommons.org/ns#"
   xmlns:rdf="http://www.w3.org/1999/02/22-rdf-syntax-ns#"
   xmlns:svg="http://www.w3.org/2000/svg"
   xmlns="http://www.w3.org/2000/svg"
   xmlns:sodipodi="http://sodipodi.sourceforge.net/DTD/sodipodi-0.dtd"
   xmlns:inkscape="http://www.inkscape.org/namespaces/inkscape"
   width="210mm"
   height="297mm"
   viewBox="0 0 744.09448819 1052.3622047"
   id="svg4160"
   version="1.1"
   inkscape:version="0.91 r13725"
   sodipodi:docname="uisymbols.svg">
  <defs
     id="defs4162" />
  <sodipodi:namedview
     id="base"
     pagecolor="#ffffff"
     bordercolor="#666666"
     borderopacity="1.0"
     inkscape:pageopacity="0.0"
     inkscape:pageshadow="2"
     inkscape:zoom="0.49497475"
     inkscape:cx="484.26257"
     inkscape:cy="724.80826"
     inkscape:document-units="px"
     inkscape:current-layer="layer1"
     showgrid="false"
     inkscape:window-width="1680"
     inkscape:window-height="987"
     inkscape:window-x="-8"
     inkscape:window-y="-8"
     inkscape:window-maximized="1" />
  <metadata
     id="metadata4165">
    <rdf:RDF>
      <cc:Work
         rdf:about="">
        <dc:format>image/svg+xml</dc:format>
        <dc:type
           rdf:resource="http://purl.org/dc/dcmitype/StillImage" />
        <dc:title></dc:title>
      </cc:Work>
    </rdf:RDF>
  </metadata>
  <g
     inkscape:label="Layer 1"
     inkscape:groupmode="layer"
     id="layer1">
    <g
       id="g4723"
       transform="translate(-153.54319,-131.31983)"
       inkscape:export-xdpi="181.05"
       inkscape:export-ydpi="181.05">
      <path
         id="path4708"
         d="m 343.45117,165.44922 a 38.385796,38.385796 0 0 0 -38.38476,38.38476 38.385796,38.385796 0 0 0 38.38476,38.38672 38.385796,38.385796 0 0 0 38.38672,-38.38672 38.385796,38.385796 0 0 0 -38.38672,-38.38476 z m 0,10.60547 a 27.779196,27.779196 0 0 1 27.7793,27.77929 27.779196,27.779196 0 0 1 -27.7793,27.7793 27.779196,27.779196 0 0 1 -27.77929,-27.7793 27.779196,27.779196 0 0 1 27.77929,-27.77929 z"
         style="opacity:1;fill:#aa0000;fill-opacity:1;stroke:#000000;stroke-width:0.75;stroke-miterlimit:1;stroke-dasharray:none;stroke-dashoffset:0;stroke-opacity:0.40221402"
         inkscape:connector-curvature="0" />
      <circle
         r="12.998918"
         cy="203.83406"
         cx="343.45187"
         id="path4712"
         style="opacity:1;fill:#aa0000;fill-opacity:1;stroke:#000000;stroke-width:0.75;stroke-miterlimit:1;stroke-dasharray:none;stroke-dashoffset:0;stroke-opacity:0.40221402" />
    </g>
    <path
       style="fill:#aa0000;fill-opacity:1;fill-rule:evenodd;stroke:#000000;stroke-width:1px;stroke-linecap:butt;stroke-linejoin:miter;stroke-opacity:0.53505536"
       d="m 140.20681,64.834209 0,15.36183 -71.517857,0 2.79819,15.36184 -23.04275,-23.04276 23.04275,-23.04275 -2.79819,15.36184 z"
       id="path4719"
       inkscape:connector-curvature="0"
       sodipodi:nodetypes="cccccccc"
       inkscape:export-xdpi="181.05"
       inkscape:export-ydpi="181.05" />
    <path
       sodipodi:nodetypes="cccccccc"
       inkscape:connector-curvature="0"
       id="path4721"
       d="m 241.17642,64.834209 0,15.36183 71.51786,0 -2.79819,15.36184 23.04275,-23.04276 -23.04275,-23.04275 2.79819,15.36184 z"
       style="fill:#aa0000;fill-opacity:1;fill-rule:evenodd;stroke:#000000;stroke-width:1px;stroke-linecap:butt;stroke-linejoin:miter;stroke-opacity:0.53505536"
       inkscape:export-xdpi="181.05"
       inkscape:export-ydpi="181.05" />
    <path
       style="fill:#1a1a1a;fill-rule:evenodd;stroke:#000000;stroke-width:1px;stroke-linecap:butt;stroke-linejoin:miter;stroke-opacity:1"
       d="m 179.67523,130.70868 c -7.27892,0.66669 -18.28815,6.55534 -27.67969,10.17969 l -13.92774,8.92773 c -5.91913,2.12507 -9.56892,2.35814 -18.03711,6.60742 l -49.999992,51.07227 -29.820308,24.46289 -10.357422,10.17969 0.150391,78.01562 c 6.180666,-8.16008 11.71523,-14.70075 19.671875,-27.30078 7.939985,-9.3477 15.880294,-18.69151 24.285154,-25.71484 17.959506,3.04434 26.300752,2.48221 37.142572,2.85742 7.66037,1.57074 15.07207,2.64414 21.78516,2.32031 15.49374,7.08027 33.19673,12.67605 48.21484,15 4.63161,3.6945 10.19939,8.25344 16.16211,11.06055 1.02343,1.57342 1.08691,4.34773 3.83789,3.76172 5,-2.39546 10,-8.52747 15,-13.03516 6.3783,-1.41007 13.15066,-2.03201 20,-2.5 l 25.53516,-6.25 c 3.4429,0.44237 7.57839,0.74477 13.39257,0.71289 8.46365,-5.99932 22.50821,-8.31671 36.07227,-11.07031 4.12784,-1.87232 20.64812,12.18777 61.35352,57.34375 l 7.04296,-0.11524 -1.2539,-70.08593 -36.42774,-29.28516 c -6.89751,-1.87718 -10.52818,-4.73613 -12.67968,-8.03711 -7.65618,-8.01297 -18.33592,-33.56929 -28.21289,-54.46289 -6.83343,-3.91025 -13.71118,-6.62494 -20.53711,-9.64453 -9.56087,-8.4662 -23.34254,-16.28199 -39.07422,-23.79883 -1.57674,-1.04439 -3.63678,-1.28207 -6.63867,0.0488 -11.11035,10.50824 -20.057,18.77639 -28.92969,30.17969 -7.27567,-12.5984 -17.02868,-21.48023 -26.07031,-31.42969 z m -5.48047,44.09179 c 3.40899,-0.1465 7.80809,7.53562 12.18554,9.59766 1.06379,7.06809 1.39907,10.99464 3.47071,11.67969 1.51086,7.60993 2.88916,15.31665 11.61718,17.67773 5.18176,-0.30241 4.03243,-2.26426 4.54688,-3.78906 0.82182,1.72538 1.18861,3.88376 4.29297,3.78906 2.7697,0.48353 5.39791,1.44801 13.38476,-11.11132 1.59014,-7.83835 1.12273,-8.48189 1.51368,-12.12305 4.71433,-1.85078 9.7013,-2.61361 13.13281,-9.59571 2.05795,3.28301 4.79437,6.56466 14.14258,9.84766 11.04518,11.05018 12.6537,20.17436 15.65625,20.45703 2.33778,4.14712 3.32977,7.33222 10.10156,14.64649 l -15.91016,17.92968 c -3.08504,3.77328 -4.65316,8.42982 -5.05078,10.85938 -9.31028,-0.0334 -19.63558,6.02502 -29.54687,9.59766 -9.37654,3.06093 -19.51678,0.26614 -27.02149,17.67773 -0.55014,-0.60019 -1.49361,-0.43825 -1.96484,-1.0293 -5.10227,-6.39965 -6.13283,-13.13692 -25.56055,-21.19531 -11.21191,-5.89113 -23.20577,-8.6236 -34.15625,-16.41406 -3.59756,-7.82425 -3.94303,-11.0674 -11.30078,-25.00196 7.40778,-7.40778 12.79707,-7.19546 24.68555,-19.76171 2.12679,-2.28486 3.75689,-5.11119 4.04101,-9.40625 3.98104,-1.03544 9.98661,-11.53642 17.74024,-14.33204 z"
       id="path4738"
       inkscape:connector-curvature="0"
       inkscape:export-xdpi="181.05"
       inkscape:export-ydpi="181.05" />
    <path
       style="fill:#1a1a1a;fill-opacity:1;fill-rule:evenodd;stroke:#000000;stroke-width:1px;stroke-linecap:butt;stroke-linejoin:miter;stroke-opacity:1"
       d="M 615.43544,4.3289419 C 579.69973,17.736862 546.30035,27.640262 508.10673,44.735042 c -7.21565,1.09176 -14.72727,2.00594 -18.68782,5.05076 -7.09508,-4.13664 -13.78067,-6.63536 -20.20305,-8.08122 -14.00886,1.74731 -20.98038,0.5624 -27.02158,-1.01015 -10.83163,-1.79646 -19.88725,-1.56318 -26.01143,2.0203 -3.51406,2.18867 -6.94895,4.37733 -11.11168,6.566 -6.42085,5.29169 -16.01836,10.31726 -14.64721,18.18274 0.99648,5.71622 6.4782,5.29689 9.59645,6.56599 -5.93271,4.27307 -13.43948,10.61883 -16.87673,16.13706 -0.80705,1.29566 -1.74026,5.5317 -0.50508,9.59645 0.58525,1.925938 0.5377,3.565108 8.29044,6.086298 -0.63978,3.03896 -9.99522,7.82024 -11.61676,11.61675 -1.50348,3.5201 -1.03632,8.1473 1.01016,11.61676 1.80438,3.05902 6.68066,6.35941 6.68066,6.35941 0,0 -6.12927,5.1581 -7.18574,8.79287 -1.18318,4.0707 -2.24362,7.27799 -0.0919,10.93048 3.79482,6.44167 16.39703,11.43555 16.39703,11.43555 5.42914,1.23754 9.08148,1.25736 19.37409,1.01542 2.00449,-0.0364 4.39151,-2.98544 5.70768,-3.93962 1.03717,-0.75192 1.60666,-0.6914 2.04967,-0.24893 1.69211,2.90497 4.2481,4.4661 8.08122,4.04061 l 6.21389,-0.32234 c 1.60805,-0.27845 2.89089,-0.18524 2.84685,1.42441 -1.9888,12.82186 -13.93253,23.48191 -14.61658,34.75835 -2.4532,0.22302 -9.71871,5.24189 -10.50227,12.30253 -4.92002,9.88353 -6.98485,13.29038 -4.65002,22.04266 0.94777,3.55276 4.36449,9.72774 4.36449,9.72774 3.57499,2.78611 5.19488,1.00354 9.20866,0.9375 1.62444,-0.58549 3.05878,-14.23845 5.88761,-17.0553 6.73955,-5.21897 14.52342,-8.21876 19.54741,-17.0833 6.71462,-5.12332 10.2912,-12.81414 14.52992,-19.9632 7.28096,-3.50263 13.43176,-8.28611 17.15246,-15.8237 12.89397,-27.52887 25.3093,-35.8 30.82978,-42.76515 9.2486,-7.31017 18.81971,-8.42155 28.28428,-12.12183 l 75.00382,-12.12183 z"
       id="path4754"
       inkscape:connector-curvature="0"
       sodipodi:nodetypes="cccccccscsscsscssccsccccccscccccccccc"
       inkscape:export-xdpi="181.05"
       inkscape:export-ydpi="181.05" />
  </g>
</svg>
